<mxfile host="app.diagrams.net" agent="Mozilla/5.0 (Macintosh; Intel Mac OS X 10_15_7) AppleWebKit/537.36 (KHTML, like Gecko) Chrome/135.0.0.0 Safari/537.36 Edg/135.0.0.0" version="26.2.13">
  <diagram name="Page-1" id="zWJx0Bn87Gjs5UEhlBAe">
    <mxGraphModel dx="1420" dy="803" grid="1" gridSize="10" guides="1" tooltips="1" connect="1" arrows="1" fold="1" page="1" pageScale="1" pageWidth="1700" pageHeight="1100" math="0" shadow="0">
      <root>
        <mxCell id="0" />
        <mxCell id="1" parent="0" />
        <mxCell id="Sg_XoyX1QiTdFGZHHGS7-1" value="&lt;b&gt;&lt;font style=&quot;font-size: 13px;&quot;&gt;Minute 5&lt;/font&gt;&lt;/b&gt;&amp;nbsp;(&lt;i&gt;Flare&lt;/i&gt;)" style="rounded=0;whiteSpace=wrap;html=1;fillColor=#d5e8d4;strokeColor=#000000;strokeWidth=1;" vertex="1" parent="1">
          <mxGeometry x="130" y="290" width="120" height="60" as="geometry" />
        </mxCell>
        <mxCell id="Sg_XoyX1QiTdFGZHHGS7-2" value="&lt;b&gt;&lt;font style=&quot;font-size: 13px;&quot;&gt;Minute 10&lt;/font&gt;&lt;/b&gt;&amp;nbsp;(&lt;i&gt;No Flare&lt;/i&gt;)" style="rounded=0;whiteSpace=wrap;html=1;fillColor=#f8cecc;strokeColor=#000000;strokeWidth=1;" vertex="1" parent="1">
          <mxGeometry x="250" y="290" width="120" height="60" as="geometry" />
        </mxCell>
        <mxCell id="Sg_XoyX1QiTdFGZHHGS7-3" value="&lt;b&gt;&lt;font style=&quot;font-size: 13px;&quot;&gt;Minute 15&lt;/font&gt;&lt;/b&gt;&amp;nbsp;(&lt;i&gt;No Flare&lt;/i&gt;)" style="rounded=0;whiteSpace=wrap;html=1;fillColor=#f8cecc;strokeColor=#000000;strokeWidth=1;" vertex="1" parent="1">
          <mxGeometry x="370" y="290" width="120" height="60" as="geometry" />
        </mxCell>
        <mxCell id="Sg_XoyX1QiTdFGZHHGS7-4" value="&lt;b&gt;&lt;font style=&quot;font-size: 13px;&quot;&gt;Minute 20&lt;/font&gt;&lt;/b&gt;&amp;nbsp;(&lt;i&gt;No Flare&lt;/i&gt;)" style="rounded=0;whiteSpace=wrap;html=1;fillColor=#f8cecc;strokeColor=#000000;strokeWidth=1;" vertex="1" parent="1">
          <mxGeometry x="490" y="290" width="120" height="60" as="geometry" />
        </mxCell>
        <mxCell id="Sg_XoyX1QiTdFGZHHGS7-5" value="&lt;b&gt;&lt;font style=&quot;font-size: 13px;&quot;&gt;Minute 25&lt;/font&gt;&lt;/b&gt;&amp;nbsp;(&lt;i&gt;No Flare&lt;/i&gt;)" style="rounded=0;whiteSpace=wrap;html=1;fillColor=#f8cecc;strokeColor=#000000;strokeWidth=1;" vertex="1" parent="1">
          <mxGeometry x="610" y="290" width="120" height="60" as="geometry" />
        </mxCell>
        <mxCell id="Sg_XoyX1QiTdFGZHHGS7-6" value="&lt;b&gt;&lt;font style=&quot;font-size: 13px;&quot;&gt;Minute 30&lt;/font&gt;&lt;/b&gt;&amp;nbsp;(&lt;i&gt;Flare&lt;/i&gt;)" style="rounded=0;whiteSpace=wrap;html=1;fillColor=#d5e8d4;strokeColor=#000000;strokeWidth=1;" vertex="1" parent="1">
          <mxGeometry x="730" y="290" width="120" height="60" as="geometry" />
        </mxCell>
        <mxCell id="Sg_XoyX1QiTdFGZHHGS7-7" value="" style="endArrow=none;dashed=1;html=1;dashPattern=1 3;strokeWidth=1;rounded=0;strokeColor=#000000;" edge="1" parent="1">
          <mxGeometry width="50" height="50" relative="1" as="geometry">
            <mxPoint x="1020" y="319.5" as="sourcePoint" />
            <mxPoint x="850" y="319.5" as="targetPoint" />
          </mxGeometry>
        </mxCell>
        <mxCell id="Sg_XoyX1QiTdFGZHHGS7-8" value="&lt;b&gt;&lt;font style=&quot;font-size: 13px;&quot;&gt;Minute 2880&lt;/font&gt;&lt;/b&gt;&amp;nbsp;(&lt;i&gt;No Flare&lt;/i&gt;)" style="rounded=0;whiteSpace=wrap;html=1;fillColor=#f8cecc;strokeColor=#000000;strokeWidth=1;" vertex="1" parent="1">
          <mxGeometry x="1020" y="290" width="120" height="60" as="geometry" />
        </mxCell>
        <mxCell id="Sg_XoyX1QiTdFGZHHGS7-9" value="&lt;b&gt;&lt;font style=&quot;font-size: 13px;&quot;&gt;Minute 2885&lt;/font&gt;&lt;/b&gt;&amp;nbsp;(&lt;i&gt;No Flare&lt;/i&gt;)" style="rounded=0;whiteSpace=wrap;html=1;fillColor=#f8cecc;strokeColor=#000000;strokeWidth=1;" vertex="1" parent="1">
          <mxGeometry x="1140" y="290" width="120" height="60" as="geometry" />
        </mxCell>
        <mxCell id="Sg_XoyX1QiTdFGZHHGS7-11" value="" style="shape=partialRectangle;whiteSpace=wrap;html=1;top=0;left=0;fillColor=none;" vertex="1" parent="1">
          <mxGeometry x="190" y="350" width="890" height="60" as="geometry" />
        </mxCell>
        <mxCell id="Sg_XoyX1QiTdFGZHHGS7-13" value="" style="endArrow=none;html=1;rounded=0;entryX=0;entryY=1;entryDx=0;entryDy=0;exitX=0.5;exitY=1;exitDx=0;exitDy=0;" edge="1" parent="1" source="Sg_XoyX1QiTdFGZHHGS7-1" target="Sg_XoyX1QiTdFGZHHGS7-11">
          <mxGeometry width="50" height="50" relative="1" as="geometry">
            <mxPoint x="700" y="440" as="sourcePoint" />
            <mxPoint x="750" y="390" as="targetPoint" />
          </mxGeometry>
        </mxCell>
        <mxCell id="Sg_XoyX1QiTdFGZHHGS7-14" value="" style="shape=partialRectangle;whiteSpace=wrap;html=1;top=0;left=0;fillColor=none;" vertex="1" parent="1">
          <mxGeometry x="310" y="350" width="890" height="80" as="geometry" />
        </mxCell>
        <mxCell id="Sg_XoyX1QiTdFGZHHGS7-15" value="" style="endArrow=none;html=1;rounded=0;entryX=0;entryY=1;entryDx=0;entryDy=0;exitX=0.5;exitY=1;exitDx=0;exitDy=0;" edge="1" parent="1" target="Sg_XoyX1QiTdFGZHHGS7-14">
          <mxGeometry width="50" height="50" relative="1" as="geometry">
            <mxPoint x="309.5" y="350" as="sourcePoint" />
            <mxPoint x="309.5" y="410" as="targetPoint" />
          </mxGeometry>
        </mxCell>
        <mxCell id="Sg_XoyX1QiTdFGZHHGS7-16" value="&lt;b&gt;&lt;font style=&quot;font-size: 13px;&quot;&gt;Window 1&lt;/font&gt;&lt;/b&gt;" style="text;html=1;align=center;verticalAlign=middle;whiteSpace=wrap;rounded=0;fontColor=#FF3E3E;" vertex="1" parent="1">
          <mxGeometry x="660" y="430" width="80" height="30" as="geometry" />
        </mxCell>
        <mxCell id="Sg_XoyX1QiTdFGZHHGS7-17" value="&lt;b&gt;&lt;font style=&quot;color: rgb(255, 62, 62); font-size: 13px;&quot;&gt;Window 2&lt;/font&gt;&lt;/b&gt;" style="text;html=1;align=center;verticalAlign=middle;whiteSpace=wrap;rounded=0;" vertex="1" parent="1">
          <mxGeometry x="680" y="380" width="80" height="30" as="geometry" />
        </mxCell>
      </root>
    </mxGraphModel>
  </diagram>
</mxfile>
